<svg width="64" height="64" viewBox="0 0 64 64" fill="none" xmlns="http://www.w3.org/2000/svg">
<path d="M32 0C14.3541 0 0 14.3541 0 32C0 49.6459 14.3541 64 32 64C49.6459 64 64 49.6434 64 32C64 14.3566 49.6459 0 32 0ZM32 59.0426C17.0906 59.0426 4.95738 46.9119 4.95738 32C4.95738 17.0881 17.0906 4.95738 32 4.95738C46.9119 4.95738 59.0426 17.0881 59.0426 32C59.0426 46.9119 46.9094 59.0426 32 59.0426Z" fill="white"/>
<path d="M46.6813 20.8706C45.6724 19.9535 44.1034 20.0253 43.1814 21.0391L28.0613 37.6886L20.7565 30.2625C19.7923 29.2859 18.2258 29.271 17.2516 30.2327C16.275 31.192 16.2601 32.761 17.2219 33.7376L26.3658 43.0327C26.8343 43.5086 27.4688 43.7739 28.133 43.7739C28.1479 43.7739 28.1653 43.7739 28.1801 43.7764C28.8643 43.7615 29.5088 43.469 29.9673 42.9634L46.8496 24.3731C47.7694 23.3567 47.695 21.7902 46.6813 20.8706Z" fill="white"/>
</svg>
