<svg width="60" height="60" viewBox="0 0 60 60" fill="none" xmlns="http://www.w3.org/2000/svg">
<g filter="url(#filter0_d_38_823)">
<circle cx="30" cy="26" r="18" fill="white"/>
</g>
<path fill-rule="evenodd" clip-rule="evenodd" d="M23.172 21.172C23.9221 20.4221 24.9393 20.0009 26 20.0009C27.0607 20.0009 28.0779 20.4221 28.828 21.172L30 22.343L31.172 21.172C31.541 20.79 31.9824 20.4852 32.4704 20.2756C32.9584 20.066 33.4833 19.9556 34.0144 19.951C34.5455 19.9464 35.0722 20.0476 35.5638 20.2487C36.0554 20.4498 36.502 20.7468 36.8776 21.1224C37.2532 21.498 37.5502 21.9446 37.7513 22.4362C37.9524 22.9278 38.0536 23.4545 38.049 23.9856C38.0444 24.5167 37.934 25.0416 37.7244 25.5296C37.5148 26.0176 37.21 26.459 36.828 26.828L30 33.657L23.172 26.828C22.4221 26.0779 22.0009 25.0607 22.0009 24C22.0009 22.9393 22.4221 21.9221 23.172 21.172Z" fill="#E7B944"/>
<defs>
<filter id="filter0_d_38_823" x="0" y="0" width="60" height="60" filterUnits="userSpaceOnUse" color-interpolation-filters="sRGB">
<feFlood flood-opacity="0" result="BackgroundImageFix"/>
<feColorMatrix in="SourceAlpha" type="matrix" values="0 0 0 0 0 0 0 0 0 0 0 0 0 0 0 0 0 0 127 0" result="hardAlpha"/>
<feOffset dy="4"/>
<feGaussianBlur stdDeviation="6"/>
<feColorMatrix type="matrix" values="0 0 0 0 0.203922 0 0 0 0 0.156863 0 0 0 0 0.243137 0 0 0 0.08 0"/>
<feBlend mode="normal" in2="BackgroundImageFix" result="effect1_dropShadow_38_823"/>
<feBlend mode="normal" in="SourceGraphic" in2="effect1_dropShadow_38_823" result="shape"/>
</filter>
</defs>
</svg>
