<svg width="20" height="20" viewBox="0 0 20 20" fill="none" xmlns="http://www.w3.org/2000/svg">
<path fill-rule="evenodd" clip-rule="evenodd" d="M3.172 5.172C3.92211 4.42212 4.93934 4.00085 6 4.00085C7.06066 4.00085 8.07789 4.42212 8.828 5.172L10 6.343L11.172 5.172C11.541 4.78996 11.9824 4.48523 12.4704 4.27559C12.9584 4.06596 13.4833 3.95561 14.0144 3.951C14.5455 3.94638 15.0722 4.04759 15.5638 4.24871C16.0554 4.44984 16.502 4.74685 16.8776 5.12242C17.2532 5.49799 17.5502 5.9446 17.7513 6.43618C17.9524 6.92777 18.0536 7.45449 18.049 7.98561C18.0444 8.51672 17.934 9.0416 17.7244 9.52962C17.5148 10.0176 17.21 10.459 16.828 10.828L10 17.657L3.172 10.828C2.42212 10.0779 2.00085 9.06066 2.00085 8C2.00085 6.93934 2.42212 5.92211 3.172 5.172Z" fill="#E7B944"/>
</svg>
