<svg width="20" height="18" viewBox="0 0 20 18" fill="none" xmlns="http://www.w3.org/2000/svg">
<path d="M2.31798 2.31801C1.90011 2.73587 1.56864 3.23195 1.34249 3.77792C1.11634 4.32389 0.999939 4.90906 0.999939 5.50001C0.999939 6.09096 1.11634 6.67613 1.34249 7.2221C1.56864 7.76806 1.90011 8.26414 2.31798 8.68201L9.99998 16.364L17.682 8.68201C18.5259 7.83809 19 6.69349 19 5.50001C19 4.30653 18.5259 3.16193 17.682 2.31801C16.8381 1.47409 15.6935 0.999981 14.5 0.999981C13.3065 0.999981 12.1619 1.47409 11.318 2.31801L9.99998 3.63601L8.68198 2.31801C8.26411 1.90014 7.76804 1.56867 7.22207 1.34252C6.6761 1.11637 6.09093 0.999969 5.49998 0.999969C4.90903 0.999969 4.32386 1.11637 3.77789 1.34252C3.23192 1.56867 2.73584 1.90014 2.31798 2.31801V2.31801Z" stroke="#9B9B9B" stroke-width="2" stroke-linecap="round" stroke-linejoin="round"/>
</svg>
