<svg width="18" height="15" viewBox="0 0 18 15" fill="none" xmlns="http://www.w3.org/2000/svg">
<path d="M2.5983 2.26499C2.25008 2.61321 1.97385 3.02661 1.78539 3.48159C1.59694 3.93656 1.49994 4.4242 1.49994 4.91666C1.49994 5.40912 1.59694 5.89676 1.78539 6.35173C1.97385 6.80671 2.25008 7.22011 2.5983 7.56833L8.99997 13.97L15.4016 7.56833C16.1049 6.86506 16.5 5.91123 16.5 4.91666C16.5 3.92209 16.1049 2.96826 15.4016 2.26499C14.6984 1.56173 13.7445 1.16664 12.75 1.16664C11.7554 1.16664 10.8016 1.56173 10.0983 2.26499L8.99997 3.36333L7.90164 2.26499C7.55342 1.91677 7.14002 1.64054 6.68505 1.45208C6.23007 1.26362 5.74243 1.16663 5.24997 1.16663C4.75751 1.16663 4.26987 1.26362 3.8149 1.45208C3.35992 1.64054 2.94653 1.91677 2.5983 2.26499V2.26499Z" stroke="url(#paint0_linear_2413_145)" stroke-width="2" stroke-linecap="round" stroke-linejoin="round"/>
<defs>
<linearGradient id="paint0_linear_2413_145" x1="16.5" y1="1.16663" x2="0.373151" y2="2.79233" gradientUnits="userSpaceOnUse">
<stop stop-color="#845FA2"/>
<stop offset="1" stop-color="#34283E"/>
</linearGradient>
</defs>
</svg>
