<svg width="24" height="24" viewBox="0 0 24 24" fill="none" xmlns="http://www.w3.org/2000/svg">

<defs>
<linearGradient id="paint0_linear_56_643" x1="21.0001" y1="4.99996" x2="1.64785" y2="6.9508" gradientUnits="userSpaceOnUse">
<stop stop-color="#845FA2"/>
<stop offset="1" stop-color="#34283E"/>
</linearGradient>
</defs>
<path d="M4.31804 6.31799C3.90017 6.73586 3.5687 7.23194 3.34255 7.7779C3.1164 8.32387 3 8.90904 3 9.49999C3 10.0909 3.1164 10.6761 3.34255 11.2221C3.5687 11.768 3.90017 12.2641 4.31804 12.682L12 20.364L19.682 12.682C20.526 11.8381 21.0001 10.6935 21.0001 9.49999C21.0001 8.30651 20.526 7.16191 19.682 6.31799C18.8381 5.47407 17.6935 4.99997 16.5 4.99997C15.3066 4.99997 14.162 5.47407 13.318 6.31799L12 7.63599L10.682 6.31799C10.2642 5.90012 9.7681 5.56865 9.22213 5.3425C8.67616 5.11635 8.09099 4.99995 7.50004 4.99995C6.90909 4.99995 6.32392 5.11635 5.77795 5.3425C5.23198 5.56865 4.7359 5.90012 4.31804 6.31799V6.31799Z" stroke="url(#paint0_linear_56_643)" stroke-width="2" stroke-linecap="round" stroke-linejoin="round"/>
</svg>
