<svg width="28" height="28" viewBox="0 0 28 28" fill="none" xmlns="http://www.w3.org/2000/svg">
<path d="M3.5 3.5H5.83333L6.3 5.83333L3.5 3.5ZM8.16667 15.1667H19.8333L24.5 5.83333H6.3L8.16667 15.1667ZM8.16667 15.1667L6.3 5.83333L8.16667 15.1667ZM8.16667 15.1667L5.4915 17.8418C4.7565 18.5768 5.27683 19.8333 6.31633 19.8333H19.8333L8.16667 15.1667ZM19.8333 19.8333C19.2145 19.8333 18.621 20.0792 18.1834 20.5168C17.7458 20.9543 17.5 21.5478 17.5 22.1667C17.5 22.7855 17.7458 23.379 18.1834 23.8166C18.621 24.2542 19.2145 24.5 19.8333 24.5C20.4522 24.5 21.0457 24.2542 21.4832 23.8166C21.9208 23.379 22.1667 22.7855 22.1667 22.1667C22.1667 21.5478 21.9208 20.9543 21.4832 20.5168C21.0457 20.0792 20.4522 19.8333 19.8333 19.8333ZM10.5 22.1667C10.5 22.7855 10.2542 23.379 9.81658 23.8166C9.379 24.2542 8.7855 24.5 8.16667 24.5C7.54783 24.5 6.95434 24.2542 6.51675 23.8166C6.07917 23.379 5.83333 22.7855 5.83333 22.1667C5.83333 21.5478 6.07917 20.9543 6.51675 20.5168C6.95434 20.0792 7.54783 19.8333 8.16667 19.8333C8.7855 19.8333 9.379 20.0792 9.81658 20.5168C10.2542 20.9543 10.5 21.5478 10.5 22.1667V22.1667Z" stroke="white" stroke-width="2" stroke-linecap="round" stroke-linejoin="round"/>
</svg>
